<svg width="25" height="24" viewBox="0 0 25 24" fill="none" xmlns="http://www.w3.org/2000/svg">
<path opacity="0.4" d="M20.4036 6.82006L14.6436 2.79006C13.0736 1.69006 10.6636 1.75006 9.15364 2.92006L4.14364 6.83006C3.14364 7.61006 2.35364 9.21006 2.35364 10.4701V17.3701C2.35364 19.9201 4.42364 22.0001 6.97364 22.0001H17.7536C20.3036 22.0001 22.3736 19.9301 22.3736 17.3801V10.6001C22.3736 9.25006 21.5036 7.59006 20.4036 6.82006Z" fill="white"/>
<path d="M12.3636 18.75C11.9536 18.75 11.6136 18.41 11.6136 18V15C11.6136 14.59 11.9536 14.25 12.3636 14.25C12.7736 14.25 13.1136 14.59 13.1136 15V18C13.1136 18.41 12.7736 18.75 12.3636 18.75Z" fill="white"/>
</svg>
