<svg width="25" height="24" viewBox="0 0 25 24" fill="none" xmlns="http://www.w3.org/2000/svg">
<path d="M16.3182 19.75H9.31818C6.57818 19.75 5.06818 18.24 5.06818 15.5V8.5C5.06818 5.76 6.57818 4.25 9.31818 4.25H16.3182C19.0582 4.25 20.5682 5.76 20.5682 8.5V15.5C20.5682 18.24 19.0582 19.75 16.3182 19.75ZM9.31818 5.75C7.38818 5.75 6.56818 6.57 6.56818 8.5V15.5C6.56818 17.43 7.38818 18.25 9.31818 18.25H16.3182C18.2482 18.25 19.0682 17.43 19.0682 15.5V8.5C19.0682 6.57 18.2482 5.75 16.3182 5.75H9.31818Z" fill="#F1F3F5"/>
<path d="M16.8182 2.75H8.81818C8.40818 2.75 8.06818 2.41 8.06818 2C8.06818 1.59 8.40818 1.25 8.81818 1.25H16.8182C17.2282 1.25 17.5682 1.59 17.5682 2C17.5682 2.41 17.2282 2.75 16.8182 2.75Z" fill="#F1F3F5"/>
<path d="M16.8182 22.75H8.81818C8.40818 22.75 8.06818 22.41 8.06818 22C8.06818 21.59 8.40818 21.25 8.81818 21.25H16.8182C17.2282 21.25 17.5682 21.59 17.5682 22C17.5682 22.41 17.2282 22.75 16.8182 22.75Z" fill="#F1F3F5"/>
<path d="M12.8182 14.75C12.4082 14.75 12.0682 14.41 12.0682 14V10C12.0682 9.59 12.4082 9.25 12.8182 9.25C13.2282 9.25 13.5682 9.59 13.5682 10V14C13.5682 14.42 13.2282 14.75 12.8182 14.75Z" fill="#F1F3F5"/>
<path d="M15.8182 14.75C15.4082 14.75 15.0682 14.41 15.0682 14V12C15.0682 11.59 15.4082 11.25 15.8182 11.25C16.2282 11.25 16.5682 11.59 16.5682 12V14C16.5682 14.42 16.2382 14.75 15.8182 14.75Z" fill="white"/>
<path d="M9.81818 14.75C9.40818 14.75 9.06818 14.41 9.06818 14V13C9.06818 12.59 9.40818 12.25 9.81818 12.25C10.2282 12.25 10.5682 12.59 10.5682 13V14C10.5682 14.42 10.2282 14.75 9.81818 14.75Z" fill="white"/>
</svg>
