<svg width="25" height="24" viewBox="0 0 25 24" fill="none" xmlns="http://www.w3.org/2000/svg">
<g clip-path="url(#clip0_87_470)">
<path d="M5.35972 4.5422C5.13472 4.59845 4.73628 4.83282 4.60972 4.98282C4.45972 5.16563 4.26284 5.55001 4.26284 5.6672C4.26284 5.80782 4.21597 5.81251 3.91128 5.70938C3.52691 5.57813 3.13784 5.61563 2.75816 5.8172C2.44409 5.98595 2.30347 6.13595 2.11597 6.48751L1.98941 6.72657L1.97534 8.60626L1.96128 10.4906L1.74097 10.5234C1.26284 10.5938 0.826906 10.9172 0.606594 11.3672C0.512844 11.5641 0.489406 11.6672 0.494094 12C0.494094 12.4359 0.578469 12.675 0.836281 12.9891C1.00972 13.1953 1.45034 13.4344 1.74097 13.4766L1.96128 13.5094L1.97534 15.3938L1.98941 17.2734L2.14878 17.5688C2.50034 18.2109 3.24097 18.5156 3.91128 18.2906C4.21597 18.1875 4.26284 18.1922 4.26284 18.3375C4.26284 18.4828 4.54409 18.975 4.70347 19.1109C5.15347 19.4906 5.82378 19.5891 6.33003 19.3547C6.64878 19.2047 6.89253 18.9703 7.06597 18.6422L7.19253 18.3984L7.20659 15.9469L7.22066 13.5H12.091H16.9613L16.9753 15.9469L16.9894 18.3984L17.1066 18.6328C17.2519 18.9328 17.5332 19.2141 17.8332 19.3594C18.0253 19.4531 18.1378 19.4766 18.466 19.4766C18.8269 19.4719 18.8925 19.4578 19.1597 19.3172C19.3238 19.2281 19.5066 19.0922 19.5722 19.0172C19.7222 18.8391 19.9191 18.45 19.9191 18.3328C19.9191 18.1922 19.966 18.1875 20.2707 18.2906C20.6457 18.4172 21.0019 18.3844 21.3957 18.1922C21.7238 18.0328 21.9207 17.8219 22.0894 17.4516C22.1878 17.2313 22.1925 17.175 22.2066 15.3703L22.2207 13.5094L22.441 13.4766C22.6847 13.4391 23.0222 13.2844 23.2332 13.1063C23.3082 13.0406 23.4441 12.8578 23.5332 12.6938C23.6785 12.4219 23.6925 12.3656 23.6925 12C23.6925 11.6344 23.6785 11.5781 23.5332 11.3063C23.2941 10.8656 22.9191 10.5938 22.441 10.5234L22.2207 10.4906L22.2066 8.60626L22.1925 6.72657L22.0332 6.43126C21.8503 6.08907 21.6863 5.93907 21.3347 5.77501C20.9832 5.61563 20.6222 5.5922 20.2707 5.70938C19.966 5.81251 19.9191 5.80782 19.9191 5.6672C19.9191 5.54063 19.755 5.20782 19.5957 5.01095C19.5207 4.92188 19.3238 4.77188 19.1597 4.68282C18.8878 4.53751 18.8316 4.52345 18.466 4.52345C18.1378 4.52345 18.0253 4.54688 17.8332 4.64063C17.5332 4.78595 17.2519 5.0672 17.1066 5.3672L16.9894 5.60157L16.9753 8.04845L16.9613 10.5H12.091H7.22066L7.20659 8.04845L7.19253 5.60157L7.06597 5.35782C6.89253 5.03438 6.64878 4.79532 6.33472 4.65001C6.06284 4.52813 5.61284 4.47657 5.35972 4.5422ZM6.12847 5.37657C6.19409 5.42345 6.29253 5.52657 6.34409 5.59688C6.44253 5.72345 6.44253 5.73751 6.44253 12C6.44253 18.2625 6.44253 18.2766 6.34409 18.4031C6.16128 18.6516 6.01128 18.7266 5.71597 18.7266C5.42066 18.7266 5.27066 18.6516 5.08784 18.4031C4.98941 18.2766 4.98941 18.2531 4.97534 12.1266C4.97066 8.7422 4.97534 5.91095 4.98941 5.82657C5.02222 5.63907 5.21909 5.40001 5.41128 5.31563C5.59878 5.22657 5.97378 5.25938 6.12847 5.37657ZM18.8785 5.37657C18.9441 5.42345 19.0425 5.52657 19.0941 5.59688C19.1925 5.72345 19.1925 5.73751 19.1925 12C19.1925 18.2625 19.1925 18.2766 19.0941 18.4031C18.9113 18.6516 18.7613 18.7266 18.466 18.7266C18.1707 18.7266 18.0207 18.6516 17.8378 18.4031C17.7394 18.2766 17.7394 18.2531 17.7253 12.1266C17.7207 8.7422 17.7253 5.91095 17.7394 5.82657C17.7722 5.63907 17.9691 5.40001 18.1613 5.31563C18.3488 5.22657 18.7238 5.25938 18.8785 5.37657ZM3.87847 6.50157C3.94409 6.54845 4.04253 6.65157 4.09409 6.72188C4.19253 6.84845 4.19253 6.87188 4.19253 12C4.19253 17.1281 4.19253 17.1516 4.09409 17.2781C3.91128 17.5219 3.76128 17.6016 3.47066 17.6016C3.24566 17.6016 3.17066 17.5781 3.02534 17.4656C2.69722 17.2172 2.71597 17.55 2.71597 12.0047C2.71597 8.56876 2.73003 6.94688 2.76753 6.85782C2.83316 6.68438 2.98784 6.52032 3.16128 6.44063C3.34878 6.35157 3.71909 6.38438 3.87847 6.50157ZM21.1285 6.50157C21.1941 6.54845 21.2925 6.65157 21.3441 6.72188C21.4425 6.84845 21.4425 6.87188 21.4425 12C21.4425 17.1281 21.4425 17.1516 21.3441 17.2781C21.1613 17.5266 21.0113 17.6016 20.716 17.6016C20.4207 17.6016 20.2707 17.5266 20.0878 17.2781C19.9894 17.1516 19.9894 17.1141 19.9753 12.1266C19.9707 9.36095 19.9753 7.03595 19.9894 6.95157C20.0222 6.76407 20.2191 6.52501 20.4113 6.44063C20.5988 6.35157 20.9738 6.38438 21.1285 6.50157ZM1.96597 12C1.96597 12.8297 1.97066 12.8109 1.67066 12.6844C1.08472 12.4406 1.08003 11.5688 1.66128 11.3156C1.97066 11.1797 1.96597 11.1703 1.96597 12ZM16.966 12V12.75H12.091H7.21597V12V11.25H12.091H16.966V12ZM22.6332 11.3813C22.8628 11.55 22.9425 11.7094 22.9425 12C22.9425 12.2063 22.9191 12.3094 22.8441 12.4031C22.7128 12.5859 22.5488 12.6984 22.3707 12.7313L22.216 12.7594V12V11.2359L22.3707 11.2688C22.4503 11.2828 22.5722 11.3344 22.6332 11.3813Z" fill="#F1F3F5"/>
</g>
<defs>
<clipPath id="clip0_87_470">
<rect width="24" height="24" fill="white" transform="translate(0.0909424)"/>
</clipPath>
</defs>
</svg>
