<svg width="130" height="182" viewBox="0 0 130 182" fill="none" xmlns="http://www.w3.org/2000/svg">
<path fill-rule="evenodd" clip-rule="evenodd" d="M121.315 135.608C121.05 134.356 120.208 133.293 118.996 132.679L49.5721 97.5554C47.1955 96.353 44.0853 97.1819 42.6227 99.4074L33.6663 113.035L126.493 160.036L121.315 135.608ZM126.814 161.551L129.906 176.136C130.725 180.003 126.03 183.171 122.29 181.274L26.4898 132.685C24.113 131.48 23.3728 128.697 24.8365 126.47L32.9995 114.05L126.814 161.551Z" fill="white"/>
<path fill-rule="evenodd" clip-rule="evenodd" d="M8.68489 46.2317C8.95035 47.4841 9.79238 48.5473 11.0043 49.1604L80.428 84.2845C82.8045 85.4869 85.9147 84.658 87.3773 82.4325L95.8857 69.4865L3.72268 22.8217L8.68489 46.2317ZM3.4016 21.307L96.5525 68.472L105.164 55.3697C106.627 53.1426 105.887 50.36 103.51 49.1545L7.7097 0.565616C3.96979 -1.33122 -0.725488 1.83679 0.0942325 5.70395L3.4016 21.307Z" fill="white"/>
<rect x="18.2953" y="55.5641" width="72.5139" height="6.57987" rx="2.41268" transform="rotate(26.66 18.2953 55.5641)" fill="white"/>
<rect x="49.3965" y="87.7614" width="72.5132" height="6.57987" rx="2.41268" transform="rotate(26.66 49.3965 87.7614)" fill="white"/>
</svg>
